<?xml version="1.0" encoding="utf-8"?>
<!-- Generator: Adobe Illustrator 22.1.0, SVG Export Plug-In . SVG Version: 6.00 Build 0)  -->
<svg version="1.1" id="Capa_1" xmlns="http://www.w3.org/2000/svg" xmlns:xlink="http://www.w3.org/1999/xlink" x="0px" y="0px"
	 viewBox="0 0 512 512" style="enable-background:new 0 0 512 512;" xml:space="preserve">
<style type="text/css">
	.st0{fill:#FFFFFF;}
</style>
<g>
	<g>
		<path class="st0" d="M240,15v92c0,19.8,30,19.9,30,0V15C270-5.2,240-4.8,240,15z"/>
	</g>
</g>
<g>
	<g>
		<path class="st0" d="M90,15c0,57.7,0,34.3,0,92c0,20.2,30,19.8,30,0c0-57.7,0-34.3,0-92C120-5.2,90-4.8,90,15z"/>
	</g>
</g>
<g>
	<g>
		<path class="st0" d="M392,15v92c0,19.8,30,19.9,30,0V15C422-5.2,392-4.8,392,15z"/>
	</g>
</g>
<g>
	<g>
		<rect x="180" y="362" class="st0" width="60" height="60"/>
	</g>
</g>
<g>
	<g>
		<rect x="90" y="362" class="st0" width="60" height="60"/>
	</g>
</g>
<g>
	<g>
		<rect x="270" y="362" class="st0" width="62" height="60"/>
	</g>
</g>
<g>
	<g>
		<rect x="90" y="272" class="st0" width="60" height="60"/>
	</g>
</g>
<g>
	<g>
		<rect x="180" y="272" class="st0" width="60" height="60"/>
	</g>
</g>
<g>
	<g>
		<path class="st0" d="M0,212v255c0,24.9,20.1,45,45,45h422c24.9,0,45-20.1,45-45V212H0z M452,437c0,8.3-6.7,15-15,15H75
			c-8.3,0-15-6.7-15-15V257c0-8.3,6.7-15,15-15h362c8.3,0,15,6.7,15,15V437z"/>
	</g>
</g>
<g>
	<g>
		<rect x="362" y="272" class="st0" width="60" height="60"/>
	</g>
</g>
<g>
	<g>
		<rect x="270" y="272" class="st0" width="62" height="60"/>
	</g>
</g>
<g>
	<g>
		<rect x="362" y="362" class="st0" width="60" height="60"/>
	</g>
</g>
<g>
	<g>
		<path class="st0" d="M467,62h-15v30v15c0,13.3-5.3,25.2-14.8,33.7c-8.2,7.3-18.9,11.2-30.2,11.2c-25.2,0-45-19.7-45-44.9V92V62
			h-62v30v15c0,13.3-5.3,25.2-14.8,33.7c-8.2,7.3-18.9,11.2-30.2,11.2c-25.2,0-45-19.7-45-44.9V92V62h-60v30v15
			c0,13.3-5.3,25.2-14.9,33.7c-8.2,7.3-19,11.3-30.2,11.3C79.7,152,60,132.2,60,107V92V62H45C20.1,62,0,82.1,0,107v75h30h75h150h152
			h45h60v-75C512,82.1,491.9,62,467,62z"/>
	</g>
</g>
</svg>
