<?xml version="1.0" encoding="utf-8"?>
<!-- Generator: Adobe Illustrator 22.1.0, SVG Export Plug-In . SVG Version: 6.00 Build 0)  -->
<svg version="1.1" id="Capa_1" xmlns="http://www.w3.org/2000/svg" xmlns:xlink="http://www.w3.org/1999/xlink" x="0px" y="0px"
	 viewBox="0 0 512 512" style="enable-background:new 0 0 512 512;" xml:space="preserve">
<style type="text/css">
	.st0{fill:#FFFFFF;}
</style>
<g>
	<g>
		<path class="st0" d="M467,60h-15V45c0-24.8-20.2-45-45-45s-45,20.2-45,45v15h-60V45c0-24.8-20.2-45-45-45s-45,20.2-45,45v15h-62
			V45c0-24.8-20.2-45-45-45S60,20.2,60,45v15H45C20.2,60,0,80.2,0,105c0,2.2,0,356.2,0,362c0,24.8,20.2,45,45,45h422
			c24.8,0,45-20.2,45-45c0-2.8,0-357.1,0-362C512,80.2,491.8,60,467,60z M392,45c0-8.3,6.7-15,15-15s15,6.7,15,15v60
			c0,8.3-6.7,15-15,15s-15-6.7-15-15V45z M242,45c0-8.3,6.7-15,15-15c8.3,0,15,6.7,15,15v60c0,8.3-6.7,15-15,15s-15-6.7-15-15V45z
			 M90,45c0-8.3,6.7-15,15-15s15,6.7,15,15v60c0,8.3-6.7,15-15,15s-15-6.7-15-15V45z M482,467c0,8.3-6.7,15-15,15H45
			c-8.3,0-15-6.7-15-15V212h452V467z M482,182H30v-77c0-8.3,6.7-15,15-15h15v15c0,24.8,20.2,45,45,45s45-20.2,45-45V90h62v15
			c0,24.8,20.2,45,45,45s45-20.2,45-45V90h60v15c0,24.8,20.2,45,45,45s45-20.2,45-45V90h15c8.3,0,15,6.7,15,15V182z"/>
	</g>
</g>
<g>
	<g>
		<path class="st0" d="M437,242H75c-8.3,0-15,6.7-15,15v180c0,8.3,6.7,15,15,15h362c8.3,0,15-6.7,15-15V257
			C452,248.7,445.3,242,437,242z M150,422H90v-60h60V422z M150,332H90v-60h60V332z M242,422h-62v-60h62V422z M242,332h-62v-60h62
			V332z M332,422h-60v-60h60V422z M332,332h-60v-60h60V332z M422,422h-60v-60h60V422z M422,332h-60v-60h60V332z"/>
	</g>
</g>
</svg>
